<?xml version="1.0" encoding="UTF-8"?>
<svg id="Layer_1" xmlns="http://www.w3.org/2000/svg" version="1.1" viewBox="0 0 32 32">
  <!-- Generator: Adobe Illustrator 29.1.0, SVG Export Plug-In . SVG Version: 2.1.0 Build 142)  -->
  <defs>
    <style>
      .st0 {
        fill: #fff;
      }
    </style>
  </defs>
  <path class="st0" d="M28,6H4c-.6,0-1,.4-1,1v17c0,1.1.9,2,2,2h22c1.1,0,2-.9,2-2V7c0-.6-.4-1-1-1ZM16,16.6L6.6,8h18.9l-9.4,8.6ZM12.3,16l-7.3,6.7v-13.5l7.3,6.7ZM13.8,17.4l1.5,1.4c.4.4,1,.4,1.4,0l1.5-1.4,7.2,6.6H6.6l7.2-6.6ZM19.7,16l7.3-6.7v13.5l-7.3-6.7Z"/>
</svg>