<?xml version="1.0" encoding="UTF-8"?>
<svg id="Layer_1" xmlns="http://www.w3.org/2000/svg" version="1.1" viewBox="0 0 32 32">
  <!-- Generator: Adobe Illustrator 29.1.0, SVG Export Plug-In . SVG Version: 2.1.0 Build 142)  -->
  <defs>
    <style>
      .st0 {
        fill: #fff;
      }
    </style>
  </defs>
  <path class="st0" d="M27,3H5c-1.1,0-2,.9-2,2v22c0,1.1.9,2,2,2h22c1.1,0,2-.9,2-2V5c0-1.1-.9-2-2-2ZM27,27H5V5h22v22ZM12,14v8c0,.6-.4,1-1,1s-1-.4-1-1v-8c0-.6.4-1,1-1s1,.4,1,1ZM23,17.5v4.5c0,.6-.4,1-1,1s-1-.4-1-1v-4.5c0-1.4-1.1-2.5-2.5-2.5s-2.5,1.1-2.5,2.5v4.5c0,.6-.4,1-1,1s-1-.4-1-1v-8c0-.6.5-1,1-1,.5,0,.9.3,1,.8,2.1-1.4,4.9-.9,6.3,1.2.5.7.8,1.6.8,2.5ZM12.5,10.5c0,.8-.7,1.5-1.5,1.5s-1.5-.7-1.5-1.5.7-1.5,1.5-1.5,1.5.7,1.5,1.5Z"/>
</svg>