<?xml version="1.0" encoding="UTF-8"?>
<svg id="Layer_1" xmlns="http://www.w3.org/2000/svg" version="1.1" viewBox="0 0 32 32">
  <!-- Generator: Adobe Illustrator 29.1.0, SVG Export Plug-In . SVG Version: 2.1.0 Build 142)  -->
  <defs>
    <style>
      .st0 {
        fill: #fff;
      }
    </style>
  </defs>
  <path class="st0" d="M28,9c-3.3,0-6-2.7-6-6,0-.6-.4-1-1-1h-5c-.6,0-1,.4-1,1v16.5c0,1.4-1.1,2.5-2.5,2.5s-2.5-1.1-2.5-2.5c0-1,.6-1.8,1.4-2.3.3-.2.6-.5.6-.9v-5.3c0-.6-.4-1-1-1,0,0-.1,0-.2,0-4.5.8-7.8,4.9-7.8,9.5s4.3,9.5,9.5,9.5,9.5-4.3,9.5-9.5v-5c1.9,1,3.9,1.5,6,1.5.6,0,1-.4,1-1v-5c0-.6-.4-1-1-1ZM27,14c-2-.2-3.8-.9-5.4-2-.4-.3-1.1-.2-1.4.2-.1.2-.2.4-.2.6v6.8c0,4.1-3.4,7.5-7.5,7.5s-7.5-3.4-7.5-7.5,2.1-6.1,5-7.2v3.5c-2.1,1.4-2.6,4.2-1.2,6.2,1.4,2.1,4.2,2.6,6.2,1.2,1.2-.8,2-2.2,2-3.7V4h3.1c.5,3.6,3.3,6.5,6.9,6.9v3Z"/>
</svg>