<?xml version="1.0" encoding="UTF-8"?>
<svg id="Layer_1" xmlns="http://www.w3.org/2000/svg" version="1.1" viewBox="0 0 32 32">
  <!-- Generator: Adobe Illustrator 29.1.0, SVG Export Plug-In . SVG Version: 2.1.0 Build 142)  -->
  <defs>
    <style>
      .st0 {
        fill: #fff;
      }
    </style>
  </defs>
  <path class="st0" d="M20.6,15.2l-6-4c-.5-.3-1.1-.2-1.4.3-.1.2-.2.4-.2.6v8c0,.6.4,1,1,1,.2,0,.4,0,.6-.2l6-4c.5-.3.6-.9.3-1.4,0-.1-.2-.2-.3-.3ZM15,18.1v-4.3l3.2,2.1-3.2,2.1ZM29.3,8.7c-.2-.9-.9-1.7-1.8-2.1-4.3-1.7-11.1-1.6-11.5-1.6s-7.2,0-11.5,1.6c-.9.4-1.6,1.1-1.8,2-.3,1.2-.7,3.5-.7,7.3s.4,6.1.7,7.3c.2.9.9,1.7,1.8,2.1,4.1,1.6,10.5,1.6,11.4,1.6h.2c.9,0,7.3,0,11.4-1.6.9-.4,1.6-1.1,1.8-2.1.3-1.2.7-3.5.7-7.3s-.4-6.1-.7-7.3ZM27.4,22.8c0,.3-.3.6-.6.7-4,1.5-10.7,1.5-10.8,1.5h0c0,0-6.8,0-10.8-1.5-.3-.1-.5-.4-.6-.7-.3-1.1-.7-3.2-.7-6.8s.3-5.7.6-6.8c0-.3.3-.6.6-.7,3.8-1.5,10.2-1.5,10.7-1.5h0c0,0,6.8,0,10.8,1.5.3.1.5.4.6.7.3,1.1.6,3.2.6,6.8s-.4,5.7-.6,6.8h0Z"/>
</svg>